<?xml version="1.0" encoding="utf-8"?>
<!-- Generator: Adobe Illustrator 24.1.3, SVG Export Plug-In . SVG Version: 6.00 Build 0)  -->
<svg version="1.1" id="Calque_1" xmlns="http://www.w3.org/2000/svg" xmlns:xlink="http://www.w3.org/1999/xlink" x="0px" y="0px"
	 viewBox="0 0 292.77 62.16" style="enable-background:new 0 0 292.77 62.16;" xml:space="preserve">
<style type="text/css">
	.st0{fill:#FEFCFD;}
	.st1{fill:#DB232F;}
	.st2{fill:#DB2430;}
	.st3{fill:#DB2631;}
	.st4{fill:#DC2934;}
	.st5{fill:#DA222E;}
	.st6{fill:#DB2632;}
	.st7{fill:#DB222E;}
	.st8{fill:#DB232E;}
</style>
<g>
	<g>
		<path class="st0" d="M0.05,0.07c96.46,0,192.92,0.01,289.37-0.07c2.73,0,3.37,0.61,3.35,3.31c-0.14,18.88-0.1,37.76-0.03,56.63
			c0.01,1.8-0.41,2.21-2.23,2.21c-96.09-0.05-192.19-0.05-288.28,0c-1.82,0-2.24-0.41-2.23-2.21C0.08,39.99,0.05,20.03,0.05,0.07z
			 M18.26,21.7c0.34-0.06,0.67-0.11,1.01-0.17c2.38,7.65,4.92,15.25,7.69,22.77c2.1,5.7,1.91,5.77,7.9,5.54
			c0.24-0.01,0.49-0.05,0.73-0.02c2.42,0.27,3.05-0.85,3.03-3.15c-0.11-11.41-0.05-22.81-0.05-34.22c0-5.33,0-5.23-5.44-5.22
			c-2.02,0.01-2.68,0.54-2.65,2.6c0.13,6.56,0.05,13.13,0.05,19.73c-3.49-2.29-2.1-6.75-4.59-9.5c-0.79-0.87-0.79-2.45-1.13-3.72
			c-2.58-9.58-2.58-9.58-12.31-9.06c-0.12,0.01-0.24,0.01-0.36,0c-1.37-0.16-1.91,0.38-1.91,1.81c0.04,13.69,0.04,27.38,0,41.07
			c0,1.32,0.32,1.82,1.81,1.89c5.3,0.23,6.23-0.53,6.23-5.66c0-5.16,0-10.33,0-15.49C18.26,27.83,18.26,24.76,18.26,21.7z M219.9,24
			c0,4.8-0.02,9.6,0.01,14.4c0.02,2.72,0.91,4.96,3.13,6.85c3.17,2.69,6.89,2.97,10.75,3.42c7.73,0.91,13.15-3.49,13.01-11.24
			c-0.14-7.92-0.03-15.84-0.03-23.77c0-6.47,0-6.31-6.39-6.46c-2.74-0.06-3.09,0.95-3.06,3.3c0.13,9,0,18,0.08,27.01
			c0.03,2.81-0.51,4.61-3.95,4.54c-3.26-0.07-4.14-1.69-4.12-4.56c0.06-7.8,0.02-15.6,0.02-23.41c0-7.06,0-6.95-7.02-6.87
			c-2.23,0.03-2.53,0.86-2.49,2.74C219.97,14.63,219.9,19.32,219.9,24z M267.09,21.52c-2.71-1.81-2.75-4.73-3.61-7.23
			c-2.37-6.89-2.55-7.04-9.84-7.01c-0.94,0-1.88,0-3.55,0c3,3.66,3.43,7.86,5.72,11.29c1.81,2.71,3.36,6.28,3.49,8.92
			c0.12,2.46-2.03,5.95-3.52,8.85c-2.07,4.03-3.85,8.2-5.85,12.54c2.23,0.34,4.02,0.56,5.79,0.88c2.27,0.4,3.74-0.61,4.24-2.66
			c0.96-3.91,3.76-7.06,4.48-11.07c0.13-0.75,0.3-1.99,1.85-1.91c0.97,5.22,4.01,9.75,5.22,14.91c0.31,1.3,1.19,1.92,2.11,2.12
			c2.11,0.46,4.3,0.57,6.46,0.84c1.5,0.19,2.05-0.36,1.5-1.82c-1.74-4.61-2.9-9.55-5.35-13.77c-3.3-5.7-3.46-10.54-0.01-16.31
			c1.92-3.21,3.68-6.82,4.65-10.6c0.17-0.67,0.87-1.54-0.3-2.14c-2.45-1.25-8.23,0.27-8.91,2.71
			C270.58,13.94,267.86,17.11,267.09,21.52z M101.91,23.62c0.01,0,0.03,0,0.04,0c0,4.81-0.01,9.62,0.01,14.43
			c0.01,1.69,0.54,3,1.83,4.38c4.36,4.66,9.82,4.22,15.17,3.39c6.18-0.96,9.68-4.52,9.65-11.55c-0.04-6.97-0.01-13.95-0.01-20.92
			c0-6.2,0-6.09-6.4-6.13c-2.2-0.01-2.88,0.49-2.84,2.77c0.15,8.41-0.01,16.83,0.09,25.25c0.04,3.12-1.02,4.66-4.4,4.64
			c-3.28-0.02-3.72-1.78-3.69-4.42c0.08-7.09,0.03-14.19,0.03-21.28c0-7.38,0-7.3-7.35-6.96c-1.83,0.08-2.2,0.71-2.17,2.34
			C101.97,14.24,101.91,18.93,101.91,23.62z M187.15,24.31c0-4.69-0.25-9.39,0.09-14.05c0.23-3.25-1.52-3.21-3.68-2.97
			c-1.93,0.21-4.66-1.28-4.52,2.86c0.28,8.4,0.07,16.82,0.09,25.23c0.01,3.17-1.62,4.5-4.72,4.42c-3-0.09-4.23-1.52-4.18-4.51
			c0.11-7.09,0.03-14.18,0.03-21.26c0-7.14,0-7.08-7.17-6.78c-1.95,0.08-2.76,0.56-2.73,2.68c0.12,8.05-0.04,16.1,0.08,24.15
			c0.1,6.74,4.11,11.13,10.77,11.94c2.03,0.25,4.16,0.4,6.17,0.11c6.3-0.93,10.5-3.45,9.85-10.63
			C186.88,31.79,187.16,28.04,187.15,24.31z M44.45,28.21c0,6.12,0,12.25,0,18.37c0,1.32-0.3,2.63,1.93,2.45
			c6.75-0.57,13.51-0.96,20.27-1.42c3.23-0.22,1.46-2.68,1.79-4.13c0.33-1.41,0.1-2.56-1.98-2.36c-3.25,0.31-6.53,0.28-9.78,0.57
			c-1.88,0.17-2.77-0.02-2.83-2.3c-0.24-9.06-0.33-9.06,8.75-9.63c0.36-0.02,0.73-0.05,1.09-0.03c2.82,0.13,1.69-1.99,1.85-3.29
			c0.18-1.5,0.19-2.9-2.11-2.72c-2.41,0.19-4.84,0.16-7.27,0.15c-0.85-0.01-2.16,0.46-2.2-1.07c-0.08-2.76-0.06-5.52-0.01-8.28
			c0.03-1.43,1.21-1.24,2.15-1.26c3.27-0.05,6.56-0.27,9.81-0.06c2.56,0.17,2.63-1.09,2.62-2.99c0-1.89-0.03-3.08-2.61-2.99
			c-6.29,0.21-12.6,0.15-18.9,0.02c-2.06-0.04-2.66,0.57-2.62,2.6C44.54,15.96,44.45,22.09,44.45,28.21z M133.33,26.15
			c0,4.32,0,8.65,0,12.97c0,5.95,0.01,5.76,5.9,5.95c3.06,0.1,4.17-0.8,3.71-3.78c-0.18-1.17-0.11-2.4-0.01-3.6
			c0.23-2.83-1.33-6.59,0.69-8.25c1.68-1.38,5.35-0.71,8.08-0.43c3.69,0.37,3.68-1.84,3.24-4.16c-0.5-2.66-2.88-1.59-4.45-1.62
			c-7.9-0.13-7.83-0.07-7.63-7.81c0.05-1.84,0.49-2.57,2.44-2.48c3.27,0.13,6.55-0.07,9.82,0.07c2.61,0.12,2.16-1.58,2.19-3.1
			c0.03-1.49,0.23-2.76-2.13-2.7c-6.42,0.17-12.85,0.13-19.27,0.02c-2.09-0.03-2.66,0.69-2.61,2.7
			C133.42,15.34,133.33,20.75,133.33,26.15z M192.98,26.31c0,5.65,0.06,11.29-0.03,16.93c-0.03,1.86,0.28,2.85,2.5,2.9
			c6.29,0.14,12.59,0.44,18.87,0.81c2.03,0.12,2.97-0.44,2.65-2.56c-0.25-1.68,0.93-4.09-2.5-3.94c-2.65,0.11-5.33-0.31-7.99-0.22
			c-3.15,0.11-4.27-0.94-4.14-4.27c0.29-7.44,0.09-14.89,0.09-22.34c0-6.51,0-6.38-6.75-6.41c-2.35-0.01-2.8,0.76-2.75,2.88
			C193.07,15.49,192.98,20.9,192.98,26.31z M80.71,29.7c0,3.72,0,7.44,0,11.15c0,5.8,0,5.63,5.74,5.53
			c2.61-0.05,3.19-0.89,3.14-3.33c-0.16-7.67-0.06-15.35-0.06-23.02c0-6.65,0-6.79,6.82-6.94c2.57-0.06,2.54-1.34,2.62-3.17
			c0.09-1.97-0.47-2.72-2.59-2.69C89.12,7.35,81.86,7.38,74.6,7.23c-2.4-0.05-3.28,0.38-3.33,3.04c-0.06,2.97,1.38,3.02,3.5,2.83
			c0.96-0.08,1.94,0.05,2.9-0.04c2.27-0.23,3.22,0.5,3.11,2.98C80.57,20.58,80.72,25.15,80.71,29.7z"/>
		<path class="st1" d="M18.26,21.7c0,3.06,0,6.13,0,9.19c0,5.16,0,10.33,0,15.49c0,5.13-0.93,5.9-6.23,5.66
			c-1.49-0.07-1.81-0.57-1.81-1.89c0.03-13.69,0.04-27.38,0-41.07c0-1.43,0.54-1.97,1.91-1.81c0.12,0.01,0.24,0.01,0.36,0
			c9.74-0.52,9.73-0.52,12.31,9.06c0.34,1.26,0.34,2.84,1.13,3.72c2.49,2.75,1.1,7.21,4.59,9.5c0-6.6,0.08-13.17-0.05-19.73
			c-0.04-2.06,0.62-2.59,2.65-2.6c5.44-0.01,5.44-0.11,5.44,5.22c0,11.41-0.06,22.81,0.05,34.22c0.02,2.3-0.6,3.43-3.03,3.15
			c-0.24-0.03-0.48,0.01-0.73,0.02c-5.99,0.23-5.79,0.16-7.9-5.54c-2.78-7.52-5.31-15.12-7.69-22.77
			C18.93,21.59,18.59,21.64,18.26,21.7z"/>
		<path class="st1" d="M219.9,24c0-4.68,0.08-9.36-0.04-14.04c-0.04-1.87,0.26-2.71,2.49-2.74c7.02-0.08,7.02-0.19,7.02,6.87
			c0,7.8,0.04,15.6-0.02,23.41c-0.02,2.87,0.86,4.48,4.12,4.56c3.44,0.08,3.98-1.72,3.95-4.54c-0.08-9,0.05-18.01-0.08-27.01
			c-0.03-2.34,0.32-3.36,3.06-3.3c6.38,0.14,6.39-0.01,6.39,6.46c0,7.92-0.11,15.85,0.03,23.77c0.14,7.75-5.29,12.15-13.01,11.24
			c-3.86-0.45-7.58-0.73-10.75-3.42c-2.22-1.89-3.11-4.12-3.13-6.85C219.87,33.6,219.9,28.8,219.9,24z"/>
		<path class="st2" d="M267.09,21.52c0.77-4.41,3.49-7.59,4.57-11.48c0.68-2.44,6.46-3.95,8.91-2.71c1.17,0.6,0.47,1.47,0.3,2.14
			c-0.98,3.77-2.74,7.39-4.65,10.6c-3.45,5.76-3.29,10.61,0.01,16.31c2.44,4.21,3.61,9.15,5.35,13.77c0.55,1.46,0,2.01-1.5,1.82
			c-2.16-0.27-4.35-0.37-6.46-0.84c-0.92-0.2-1.8-0.82-2.11-2.12c-1.21-5.16-4.25-9.69-5.22-14.91c-1.55-0.07-1.72,1.17-1.85,1.91
			c-0.72,4.01-3.53,7.16-4.48,11.07c-0.5,2.06-1.97,3.07-4.24,2.66c-1.77-0.31-3.55-0.54-5.79-0.88c2.01-4.34,3.78-8.52,5.85-12.54
			c1.49-2.9,3.64-6.39,3.52-8.85c-0.13-2.64-1.68-6.21-3.49-8.92c-2.28-3.43-2.72-7.63-5.72-11.29c1.67,0,2.61,0,3.55,0
			c7.29-0.02,7.47,0.13,9.84,7.01C264.35,16.8,264.38,19.72,267.09,21.52z"/>
		<path class="st3" d="M101.91,23.62c0-4.69,0.06-9.38-0.03-14.07c-0.03-1.63,0.34-2.25,2.17-2.34c7.35-0.33,7.35-0.41,7.35,6.96
			c0,7.09,0.05,14.19-0.03,21.28c-0.03,2.63,0.41,4.4,3.69,4.42c3.38,0.02,4.43-1.52,4.4-4.64c-0.1-8.41,0.06-16.83-0.09-25.25
			c-0.04-2.28,0.64-2.79,2.84-2.77c6.39,0.03,6.4-0.07,6.4,6.13c0,6.97-0.03,13.95,0.01,20.92c0.04,7.03-3.47,10.6-9.65,11.55
			c-5.35,0.83-10.81,1.28-15.17-3.39c-1.29-1.38-1.82-2.69-1.83-4.38c-0.02-4.81-0.01-9.62-0.01-14.43
			C101.94,23.62,101.93,23.62,101.91,23.62z"/>
		<path class="st4" d="M187.16,24.31c0,3.72-0.27,7.47,0.06,11.17c0.65,7.17-3.56,9.69-9.85,10.63c-2.01,0.3-4.13,0.14-6.17-0.11
			c-6.66-0.81-10.67-5.2-10.77-11.94c-0.12-8.05,0.04-16.1-0.08-24.15c-0.03-2.12,0.79-2.6,2.73-2.68c7.17-0.29,7.17-0.35,7.17,6.78
			c0,7.09,0.08,14.18-0.03,21.26c-0.05,2.99,1.18,4.43,4.18,4.51c3.1,0.09,4.73-1.24,4.72-4.42c-0.02-8.41,0.19-16.83-0.09-25.23
			c-0.14-4.14,2.59-2.66,4.52-2.86c2.17-0.23,3.92-0.28,3.68,2.97C186.91,14.92,187.15,19.63,187.16,24.31z"/>
		<path class="st5" d="M44.45,28.21c0-6.12,0.09-12.25-0.04-18.37c-0.04-2.03,0.56-2.64,2.62-2.6c6.3,0.13,12.61,0.18,18.9-0.02
			c2.58-0.08,2.6,1.1,2.61,2.99c0,1.91-0.06,3.16-2.62,2.99c-3.25-0.21-6.54,0.01-9.81,0.06c-0.94,0.02-2.12-0.18-2.15,1.26
			c-0.05,2.76-0.07,5.52,0.01,8.28c0.04,1.53,1.35,1.06,2.2,1.07c2.42,0.02,4.85,0.04,7.27-0.15c2.3-0.18,2.3,1.22,2.11,2.72
			c-0.16,1.3,0.97,3.42-1.85,3.29c-0.36-0.02-0.73,0.01-1.09,0.03c-9.08,0.57-8.99,0.57-8.75,9.63c0.06,2.29,0.95,2.47,2.83,2.3
			c3.25-0.3,6.53-0.27,9.78-0.57c2.07-0.2,2.3,0.95,1.98,2.36c-0.34,1.45,1.43,3.91-1.79,4.13c-6.76,0.46-13.52,0.85-20.27,1.42
			c-2.23,0.19-1.94-1.13-1.93-2.45C44.45,40.46,44.45,34.34,44.45,28.21z"/>
		<path class="st6" d="M133.33,26.15c0-5.41,0.09-10.81-0.04-16.22c-0.05-2.01,0.52-2.73,2.61-2.7c6.42,0.11,12.85,0.15,19.27-0.02
			c2.37-0.06,2.17,1.21,2.13,2.7c-0.03,1.52,0.42,3.22-2.19,3.1c-3.27-0.15-6.55,0.06-9.82-0.07c-1.95-0.08-2.39,0.65-2.44,2.48
			c-0.2,7.74-0.27,7.68,7.63,7.81c1.58,0.03,3.95-1.05,4.45,1.62c0.43,2.32,0.45,4.54-3.24,4.16c-2.73-0.28-6.4-0.95-8.08,0.43
			c-2.02,1.66-0.46,5.41-0.69,8.25c-0.1,1.19-0.17,2.42,0.01,3.6c0.46,2.98-0.65,3.88-3.71,3.78c-5.89-0.19-5.9,0-5.9-5.95
			C133.33,34.8,133.33,30.48,133.33,26.15z"/>
		<path class="st7" d="M192.98,26.31c0-5.4,0.1-10.81-0.05-16.21c-0.06-2.12,0.39-2.89,2.75-2.88c6.75,0.03,6.75-0.1,6.75,6.41
			c0,7.45,0.2,14.9-0.09,22.34c-0.13,3.33,0.99,4.38,4.14,4.27c2.66-0.09,5.33,0.33,7.99,0.22c3.43-0.15,2.25,2.26,2.5,3.94
			c0.32,2.11-0.62,2.67-2.65,2.56c-6.29-0.37-12.58-0.67-18.87-0.81c-2.22-0.05-2.53-1.04-2.5-2.9
			C193.04,37.6,192.98,31.95,192.98,26.31z"/>
		<path class="st8" d="M80.72,29.7c0-4.56-0.15-9.12,0.06-13.67c0.11-2.48-0.84-3.21-3.11-2.98c-0.96,0.1-1.94-0.04-2.9,0.04
			c-2.12,0.19-3.56,0.14-3.5-2.83c0.05-2.66,0.94-3.09,3.33-3.04c7.26,0.15,14.52,0.13,21.78,0.01c2.13-0.03,2.68,0.71,2.59,2.69
			c-0.08,1.84-0.05,3.12-2.62,3.17c-6.82,0.16-6.82,0.29-6.82,6.94c0,7.68-0.1,15.35,0.06,23.02c0.05,2.44-0.53,3.28-3.14,3.33
			c-5.74,0.1-5.74,0.27-5.74-5.53C80.72,37.14,80.71,33.42,80.72,29.7z"/>
	</g>
</g>
</svg>
